<?xml version="1.0" encoding="UTF-8"?>
<svg version="1.1" xmlns="http://www.w3.org/2000/svg" width="2000" height="963">
<path d="M0 0 C1.59152354 1.96636113 2.98199669 3.8986141 4.375 6 C9.69057714 13.73238357 15.5267263 20.95515758 21.50292969 28.18261719 C23.58459385 30.70967329 25.63251175 33.26373365 27.6875 35.8125 C31.45604698 40.41773356 35.40788304 44.82873534 39.4453125 49.19921875 C41.36970112 51.30898425 43.23405465 53.44109047 45.08984375 55.609375 C49.47740844 60.63837227 54.18884981 65.33902546 58.9152832 70.0456543 C60.43491668 71.5599258 61.94912517 73.0794743 63.46289062 74.59960938 C68.80311719 79.94387256 74.24002372 85.1063142 80 90 C81.1682086 91.0216771 82.33489765 92.0450945 83.5 93.0703125 C103.90637915 110.91576631 125.2074224 127.30248536 148 142 C148.89283691 142.57862793 149.78567383 143.15725586 150.70556641 143.75341797 C221.02396346 189.13997903 305.92015433 222.39787264 390.87158203 212.24365234 C395.56913602 211.70589611 400.28635526 211.36406199 405 211 C405 210.01 405 209.02 405 208 C406.09441406 207.99613281 406.09441406 207.99613281 407.2109375 207.9921875 C434.20074505 206.992565 463.30299019 190.6110935 483 173 C484.01680714 172.11574748 485.03373955 171.23163898 486.05078125 170.34765625 C518.16357676 142.08539968 525.53739942 94.47554639 533.5234375 54.46875 C533.74317734 53.37251312 533.96291718 52.27627625 534.1893158 51.14682007 C535.29270426 45.63569263 536.38230957 40.12245343 537.44848633 34.60400391 C537.85461783 32.551035 538.26109689 30.49813481 538.66796875 28.4453125 C538.93176834 27.04230896 538.93176834 27.04230896 539.20089722 25.61096191 C540.58562137 18.71254938 542.35794729 12.45333466 547.625 7.5625 C554.67483784 4.29868618 560.48882267 4.48731994 567.69995117 7.04370117 C571.29433439 8.53814965 574.47470983 10.5389641 577.75 12.625 C613.25503266 34.29430645 656.35372206 41.85038245 697.03369141 32.73632812 C714.8927679 28.30316148 732.0172467 21.61478959 747.66674805 11.92602539 C755.30238711 7.21126097 761.7702231 3.35812318 771.046875 5.46484375 C775.29260819 6.99802518 778.25456254 9.49194103 781 13 C783.58437458 19.11919282 784.88921434 25.62301152 786.1640625 32.11328125 C786.56292257 34.08575604 786.96210566 36.05816553 787.36157227 38.03051758 C787.56726837 39.05529205 787.77296448 40.08006653 787.9848938 41.13589478 C798.48315927 105.96729702 798.48315927 105.96729702 829 162 C829.55429688 162.63164062 830.10859375 163.26328125 830.6796875 163.9140625 C846.66805396 181.18149828 868.29941742 192.71595636 890 201 C890.71029861 201.28042648 891.42059723 201.56085297 892.15242004 201.84977722 C907.55049667 207.78714953 922.88571473 207.91011897 939.18701172 207.87554932 C942.6743093 207.87462075 946.16129101 207.90771262 949.6484375 207.9375 C956.43234429 207.99065618 963.21589505 208.00763127 970 208 C970 209.65 970 211.3 970 213 C1004.45591996 210.05661465 1037.15521847 204.14920078 1070 193 C1070.86737793 192.70931641 1071.73475586 192.41863281 1072.62841797 192.11914062 C1119.22582246 176.36937436 1163.49191024 151.85754619 1202.88720703 122.5703125 C1204.99032922 121.00718771 1207.10195013 119.45613148 1209.21484375 117.90625 C1216.7056312 112.38220363 1223.94383001 106.65197557 1230.9921875 100.57421875 C1233.76607416 98.20020406 1236.58716944 95.90609545 1239.4375 93.625 C1245.12714883 89.00008078 1250.44410409 84.013044 1255.78515625 78.99609375 C1258.18276794 76.74794357 1260.62063786 74.56698881 1263.125 72.4375 C1271.38419625 65.29729163 1278.95017714 57.32230126 1286 49 C1286.86882812 48.00871094 1287.73765625 47.01742187 1288.6328125 45.99609375 C1295.91314364 37.66739493 1302.71130481 29.03548945 1309.35351562 20.19189453 C1311.04851467 17.93541449 1312.7503639 15.68422064 1314.453125 13.43359375 C1315.55247549 11.97685837 1316.6514478 10.51983749 1317.75 9.0625 C1318.52053711 8.0418042 1318.52053711 8.0418042 1319.30664062 7.00048828 C1321.86943497 3.6383643 1321.86943497 3.6383643 1324 0 C1328.04345862 0.58662284 1330.86054835 1.86679941 1334.34765625 3.97265625 C1335.9411792 4.93316895 1335.9411792 4.93316895 1337.56689453 5.91308594 C1338.73259177 6.62875096 1339.89777783 7.34524917 1341.0625 8.0625 C1341.66092712 8.42815063 1342.25935425 8.79380127 1342.87591553 9.17053223 C1366.17108738 23.42178603 1389.20182925 38.53978243 1411 55 C1411.57572754 55.43376953 1412.15145508 55.86753906 1412.74462891 56.31445312 C1416.52514129 59.17328371 1420.26639834 62.08007243 1424 65 C1425.13902648 65.8805919 1426.27835756 66.76078993 1427.41796875 67.640625 C1434.08925881 72.81196609 1440.59016082 78.13811683 1446.96728516 83.66845703 C1450.35859085 86.60771526 1453.79802345 89.45753072 1457.3125 92.25 C1471.28429864 103.6796519 1483.86197247 116.76460156 1496.625 129.5 C1497.3313559 130.20367706 1498.03771179 130.90735413 1498.76547241 131.63235474 C1500.8180156 133.67899887 1502.8666726 135.72945193 1504.9140625 137.78125 C1505.52398544 138.38919907 1506.13390839 138.99714813 1506.76231384 139.6235199 C1511.03725061 143.92109074 1515.04937542 148.40405213 1519 153 C1519.97335432 154.11771379 1520.94720892 155.23499241 1521.921875 156.3515625 C1528.40454612 163.83634748 1534.64227387 171.47282546 1540.69287109 179.31054688 C1541.95097231 180.93663213 1543.2182913 182.55506655 1544.48828125 184.171875 C1604.10849487 260.62267524 1641.33576024 354.39113422 1641.1875 451.9375 C1641.18656342 452.74391937 1641.18562683 453.55033875 1641.18466187 454.38119507 C1640.96439776 542.51830275 1609.73740427 627.47170451 1559 699 C1558.49500977 699.71752441 1557.99001953 700.43504883 1557.46972656 701.17431641 C1549.73484547 712.14832771 1541.60404514 722.69534568 1533 733 C1532.51789063 733.58120605 1532.03578125 734.16241211 1531.5390625 734.76123047 C1525.77827114 741.70163138 1519.84609068 748.44615097 1513.703125 755.05078125 C1512.31047059 756.55097655 1510.94765054 758.06166675 1509.62280273 759.62231445 C1503.94983946 766.30054506 1497.72285255 772.42775219 1491.52124023 778.60913086 C1489.56704376 780.5579687 1487.61824853 782.51209272 1485.66992188 784.46679688 C1479.61438445 790.52557269 1473.54090483 796.46124204 1467 802 C1465.22429779 803.61967817 1463.45291693 805.24411718 1461.6875 806.875 C1456.80663191 811.32186477 1451.77624476 815.52428901 1446.63720703 819.66748047 C1444.77611932 821.18221604 1442.93242794 822.71671785 1441.08984375 824.25390625 C1432.25573965 831.61378276 1423.29133672 838.72248163 1414.01708984 845.52001953 C1412.02249445 846.98349536 1410.03662299 848.45827129 1408.05078125 849.93359375 C1372.92066551 875.84116572 1335.46750039 898.45320673 1297.0625 919.125 C1295.38559082 920.02992188 1295.38559082 920.02992188 1293.67480469 920.953125 C1286.23360456 924.92413936 1278.6935917 928.54509131 1271 932 C1270.77449463 931.04561035 1270.54898926 930.0912207 1270.31665039 929.10791016 C1260.23981678 886.68990569 1246.74740115 845.45971965 1219 811 C1218.59346191 810.49194824 1218.18692383 809.98389648 1217.76806641 809.46044922 C1192.35547971 777.90075075 1159.00011599 754.89187334 1118.375 748.625 C1080.91824297 744.66715095 1045.25767705 756.07970066 1015.984375 779.5390625 C1011.51633652 783.22343978 1007.20438089 787.01758953 1003 791 C1002.06671875 791.86882813 1001.1334375 792.73765625 1000.171875 793.6328125 C985.61729525 807.4713175 973.80133078 824.53096147 964 842 C959.88299347 841.49928299 958.34789373 839.46817563 955.75 836.375 C952.38526517 832.50528049 948.98014449 829.04862042 945.05859375 825.75390625 C943.64368016 824.54841061 942.26189086 823.30328016 940.91015625 822.02734375 C912.70634614 795.46272944 874.39418049 776.7279706 835.10546875 777.75 C799.20272846 779.47071605 769.81764043 800.02886906 745.875 825.25 C723.54722074 850.51271197 707.49776453 882.02533056 696.27734375 913.60546875 C696.03799606 914.27461807 695.79864838 914.9437674 695.55204773 915.63319397 C694.35667211 918.97645039 693.17775876 922.32358152 692.03100586 925.68383789 C689.26415739 933.51872174 686.67068882 939.58680432 679.8671875 944.55859375 C672.79126869 947.68032264 665.58337794 948.53407986 658.15234375 946.046875 C652.04198205 943.20317206 648.39069299 940.15354326 645.61328125 933.85546875 C645.18402344 932.64503906 644.75476563 931.43460938 644.3125 930.1875 C643.79462192 928.75898726 643.27636826 927.33061063 642.7578125 925.90234375 C642.33870605 924.73227783 642.33870605 924.73227783 641.91113281 923.53857422 C629.10725739 887.86475412 614.03444636 853.88407547 589 825 C588.5270752 824.44731445 588.05415039 823.89462891 587.56689453 823.32519531 C567.48988189 799.99110252 539.67301167 782.31484406 508.76171875 778.28125 C469.34693506 775.33435028 436.65970766 789.02738907 406 813 C405.13246094 813.67289063 404.26492188 814.34578125 403.37109375 815.0390625 C389.7951246 825.84318698 377.59013121 838.11987131 366 851 C362.84541501 848.3359145 361.31016155 844.93421696 359.5 841.3125 C338.62501854 800.93406694 302.36865911 767.47249865 258.99462891 753.30810547 C226.23002249 743.19425288 192.37264347 747.68947786 162 763 C148.38854638 770.25358318 136.17334592 779.37962899 125 790 C124.47680176 790.49064941 123.95360352 790.98129883 123.41455078 791.48681641 C83.73278257 828.901055 64.85259198 879.97626898 53 932 C29.81555802 921.41936433 7.78433989 908.91772273 -14.02929688 895.78515625 C-16.52884112 894.283129 -19.03527969 892.79422655 -21.546875 891.3125 C-43.72481043 878.12448343 -65.37492119 863.49692956 -86 848 C-86.69899414 847.47680176 -87.39798828 846.95360352 -88.11816406 846.41455078 C-105.9253685 833.04913441 -123.27873616 819.00592912 -139.7578125 804.02734375 C-141.71208424 802.26032801 -143.69059737 800.53086471 -145.6875 798.8125 C-155.27864408 790.43226188 -164.47840391 781.61168606 -173.5 772.625 C-174.14582031 771.98377197 -174.79164063 771.34254395 -175.45703125 770.68188477 C-179.24356459 766.88310203 -182.83349223 762.96531263 -186.33886719 758.90625 C-188.78257229 756.10195114 -191.33083278 753.40027982 -193.875 750.6875 C-198.30143039 745.92390952 -202.53524673 741.05931849 -206.60546875 735.984375 C-208.38240685 733.76972458 -210.17495802 731.57507619 -211.98828125 729.390625 C-276.33414561 651.61656841 -317.33657785 554.28717131 -317.1875 452.625 C-317.18656342 451.79207428 -317.18562683 450.95914856 -317.18466187 450.10098267 C-317.03626397 388.85505284 -302.37146096 329.24852391 -276 274 C-275.55430664 273.06478516 -275.10861328 272.12957031 -274.64941406 271.16601562 C-259.96942517 240.59697905 -241.87070053 211.73283464 -221 185 C-220.08154328 183.8063649 -219.16357593 182.61235309 -218.24609375 181.41796875 C-209.71156785 170.36927905 -200.63092283 159.79642227 -191.23046875 149.4765625 C-189.98567789 148.09443044 -188.74727161 146.70621575 -187.53424072 145.29612732 C-183.19679024 140.26008907 -178.64675179 135.50041673 -173.94140625 130.80859375 C-173.1934227 130.05965347 -172.44543915 129.3107132 -171.67478943 128.53907776 C-170.10367536 126.96728775 -168.53131608 125.39674151 -166.95776367 123.82739258 C-164.56900154 121.44398696 -162.18562554 119.05528932 -159.80273438 116.66601562 C-158.2659455 115.12988763 -156.7288464 113.59406991 -155.19140625 112.05859375 C-154.48907364 111.35423691 -153.78674103 110.64988007 -153.06312561 109.92417908 C-148.53542987 105.41754818 -143.85427635 101.15168916 -139 97 C-137.87099961 96.02615079 -136.74207782 95.05221045 -135.61328125 94.078125 C-132.68020296 91.56205336 -129.74249626 89.05139437 -126.80371094 86.54199219 C-125.08795684 85.07519428 -123.37582907 83.60425967 -121.6640625 82.1328125 C-114.9118805 76.34813773 -108.01375795 70.79724602 -100.91259766 65.44433594 C-98.7840998 63.8369587 -96.66381155 62.21902508 -94.54296875 60.6015625 C-66.84677621 39.56399741 -37.78333133 20.89629413 -8 3 C-6.67246704 2.14752686 -6.67246704 2.14752686 -5.31811523 1.27783203 C-3 0 -3 0 0 0 Z " fill="#0F3054" transform="translate(338,8)"/>
<path d="M0 0 C10.04010497 5.9545176 20.05796641 10.88526372 31 14.9375 C31.98129883 15.3077832 31.98129883 15.3077832 32.98242188 15.68554688 C72.40178861 30.25094236 115.9789565 25.8800943 153.85327148 9.02856445 C159.69497887 6.32086431 165.19370554 3.25194123 170.66674805 -0.13647461 C178.30238711 -4.85123903 184.7702231 -8.70437682 194.046875 -6.59765625 C198.29260819 -5.06447482 201.25456254 -2.57055897 204 0.9375 C206.58437458 7.05669282 207.88921434 13.56051152 209.1640625 20.05078125 C209.56292257 22.02325604 209.96210566 23.99566553 210.36157227 25.96801758 C210.56726837 26.99279205 210.77296448 28.01756653 210.9848938 29.07339478 C221.48315927 93.90479702 221.48315927 93.90479702 252 149.9375 C252.55429688 150.56914062 253.10859375 151.20078125 253.6796875 151.8515625 C269.66805396 169.11899828 291.29941742 180.65345636 313 188.9375 C313.71029861 189.21792648 314.42059723 189.49835297 315.15242004 189.78727722 C330.55049667 195.72464953 345.88571473 195.84761897 362.18701172 195.81304932 C365.6743093 195.81212075 369.16129101 195.84521262 372.6484375 195.875 C379.43240634 195.92815666 386.21582598 195.94196747 393 195.9375 C393 200.5575 393 205.1775 393 209.9375 C379.8 209.9375 366.6 209.9375 353 209.9375 C353 366.0275 353 522.1175 353 682.9375 C366.2 682.9375 379.4 682.9375 393 682.9375 C393 687.2275 393 691.5175 393 695.9375 C321.06 695.9375 249.12 695.9375 175 695.9375 C175 691.6475 175 687.3575 175 682.9375 C187.87 682.9375 200.74 682.9375 214 682.9375 C214 535.4275 214 387.9175 214 235.9375 C213.01 235.9375 212.02 235.9375 211 235.9375 C210.80772827 237.68208496 210.80772827 237.68208496 210.61157227 239.46191406 C210.09525243 243.5750947 209.22435758 247.52301319 208.21484375 251.546875 C207.84957893 253.0195237 207.48434598 254.4921803 207.11914062 255.96484375 C206.92682861 256.73296387 206.7345166 257.50108398 206.53637695 258.29248047 C203.15902986 271.79911521 199.96879539 285.33551073 197 298.9375 C194.33147946 311.1474213 191.49183124 323.30279205 188.5 335.4375 C185.47311604 347.71869892 182.59112356 360.02126429 179.875 372.375 C178.52200096 378.52458318 178.52200096 378.52458318 177.89453125 381.375 C177.73470261 382.1010997 177.57487396 382.8271994 177.41020203 383.57530212 C174.07747671 398.68101179 170.52904141 413.73835656 166.84375 428.76171875 C166.5651841 429.89754646 166.5651841 429.89754646 166.2809906 431.05632019 C166.09343704 431.82092056 165.90588348 432.58552094 165.71264648 433.37329102 C165.32924983 434.93635712 164.94586775 436.4994268 164.5625 438.0625 C164.37180939 438.83955292 164.18111877 439.61660583 163.98464966 440.41720581 C160.99136113 452.63510016 158.19800332 464.88717472 155.51052856 477.17559814 C152.82964229 489.41721741 149.92741949 501.5933103 146.92724609 513.76025391 C144.12947691 525.12096481 141.49928817 536.50755499 139 547.9375 C136.15974478 560.92678284 133.11047265 573.85095407 129.92724609 586.76025391 C126.948011 598.8578311 124.17415305 610.98865978 121.51428223 623.16012573 C118.75282694 635.77795089 115.75780174 648.32888852 112.66577148 660.86950684 C110.28259159 670.53856741 107.96425111 680.20275235 106.05175781 689.97875977 C105.09204416 694.84545584 105.09204416 694.84545584 104 695.9375 C101.2001028 696.03269368 98.42493826 696.06303944 95.62475586 696.05102539 C94.30780479 696.05124443 94.30780479 696.05124443 92.96424866 696.0514679 C90.04775565 696.05076844 87.13132567 696.04297455 84.21484375 696.03515625 C82.19845108 696.03329218 80.18205796 696.03186823 78.16566467 696.03086853 C72.84734862 696.02704244 67.5290597 696.01721139 62.21075439 696.00616455 C56.78829312 695.99595238 51.36582748 695.99137133 45.94335938 695.98632812 C35.29556097 695.9755892 24.64778274 695.95851169 14 695.9375 C13.83133423 695.28822037 13.66266846 694.63894073 13.4888916 693.96998596 C12.71203851 690.98111183 11.93415052 687.99250794 11.15625 685.00390625 C10.89102539 683.9828479 10.62580078 682.96178955 10.35253906 681.90979004 C8.40241706 674.42185991 6.36622369 666.96189779 4.27734375 659.51171875 C2.84829425 654.41020169 1.45422411 649.29930623 0.0625 644.1875 C-0.31455078 642.80292603 -0.31455078 642.80292603 -0.69921875 641.39038086 C-1.21088975 639.51093626 -1.72244518 637.63146018 -2.23388672 635.75195312 C-3.23863039 632.06084891 -4.24519882 628.37024373 -5.25195312 624.6796875 C-6.00282516 621.92714355 -6.75336506 619.17450917 -7.50390625 616.421875 C-8.48972977 612.80697497 -9.47678807 609.19241552 -10.46484375 605.578125 C-13.46513654 594.5983301 -16.43704417 583.61119886 -19.39208984 572.61914062 C-21.99369163 562.94743844 -24.62504344 553.28403448 -27.26611328 543.62304688 C-28.51260345 539.06170559 -29.75613291 534.49955715 -31 529.9375 C-31.49998623 528.10416291 -31.99998622 526.27082958 -32.5 524.4375 C-35.5 513.4375 -38.5 502.4375 -41.5 491.4375 C-41.8710083 490.0772168 -41.8710083 490.0772168 -42.24951172 488.68945312 C-42.75124942 486.8496394 -43.25287641 485.00979547 -43.75439453 483.16992188 C-44.97691758 478.68548867 -46.20113468 474.20153532 -47.4296875 469.71875 C-50.35000653 459.0528921 -53.22104215 448.374616 -56.0625 437.6875 C-58.58569208 428.19798844 -61.145505 418.72116917 -63.79296875 409.265625 C-65.98246469 401.43949653 -68.10011093 393.59340981 -70.23388672 385.75195312 C-71.48748131 381.14665088 -72.743862 376.54210902 -74 371.9375 C-74.50001378 370.10417042 -75.00001377 368.27083709 -75.5 366.4375 C-75.7475 365.53 -75.995 364.6225 -76.25 363.6875 C-77 360.9375 -77.75 358.1875 -78.5 355.4375 C-78.87112915 354.0767334 -78.87112915 354.0767334 -79.24975586 352.68847656 C-79.75062473 350.85190304 -80.25143838 349.01531445 -80.75219727 347.17871094 C-81.98845515 342.64482849 -83.22561649 338.11119681 -84.46484375 333.578125 C-87.46513654 322.5983301 -90.43704417 311.61119886 -93.39208984 300.61914062 C-95.9893532 290.96356698 -98.61625242 281.31626039 -101.25292969 271.67138672 C-102.56639574 266.86478776 -103.87674279 262.05733822 -105.1875 257.25 C-105.66014271 255.51692339 -106.13279849 253.78385035 -106.60546875 252.05078125 C-106.83024902 251.22400879 -107.0550293 250.39723633 -107.28662109 249.54541016 C-107.7999954 247.66865988 -108.31926364 245.79351824 -108.84228516 243.91943359 C-109.25486572 242.4337085 -109.25486572 242.4337085 -109.67578125 240.91796875 C-109.92884033 240.01328857 -110.18189941 239.1086084 -110.44262695 238.17651367 C-111 235.9375 -111 235.9375 -111 233.9375 C-111.99 233.9375 -112.98 233.9375 -114 233.9375 C-114 382.1075 -114 530.2775 -114 682.9375 C-101.13 682.9375 -88.26 682.9375 -75 682.9375 C-75 687.2275 -75 691.5175 -75 695.9375 C-107.01 695.9375 -139.02 695.9375 -172 695.9375 C-172 691.3175 -172 686.6975 -172 681.9375 C-159.13 681.9375 -146.26 681.9375 -133 681.9375 C-133 526.1775 -133 370.4175 -133 209.9375 C-145.87 209.9375 -158.74 209.9375 -172 209.9375 C-172 205.3175 -172 200.6975 -172 195.9375 C-170.22625 195.89625 -168.4525 195.855 -166.625 195.8125 C-140.77331141 193.76789191 -112.94672062 177.87776004 -94 160.9375 C-92.98319286 160.05324748 -91.96626045 159.16913898 -90.94921875 158.28515625 C-58.83642324 130.02289968 -51.46260058 82.41304639 -43.4765625 42.40625 C-43.25682266 41.31001312 -43.03708282 40.21377625 -42.8106842 39.08432007 C-41.70729574 33.57319263 -40.61769043 28.05995343 -39.55151367 22.54150391 C-39.14538217 20.488535 -38.73890311 18.43563481 -38.33203125 16.3828125 C-38.06823166 14.97980896 -38.06823166 14.97980896 -37.79910278 13.54846191 C-36.3872296 6.51479844 -34.7173548 0.14535077 -29 -4.5 C-18.59321475 -9.92020065 -9.25126202 -5.76552294 0 0 Z " fill="#FEFEFE" transform="translate(915,20.0625)"/>
<path d="M0 0 C10.04010497 5.9545176 20.05796641 10.88526372 31 14.9375 C31.98129883 15.3077832 31.98129883 15.3077832 32.98242188 15.68554688 C72.40178861 30.25094236 115.9789565 25.8800943 153.85327148 9.02856445 C159.69497887 6.32086431 165.19370554 3.25194123 170.66674805 -0.13647461 C178.30238711 -4.85123903 184.7702231 -8.70437682 194.046875 -6.59765625 C198.29260819 -5.06447482 201.25456254 -2.57055897 204 0.9375 C206.58437458 7.05669282 207.88921434 13.56051152 209.1640625 20.05078125 C209.56292257 22.02325604 209.96210566 23.99566553 210.36157227 25.96801758 C210.56726837 26.99279205 210.77296448 28.01756653 210.9848938 29.07339478 C221.48315927 93.90479702 221.48315927 93.90479702 252 149.9375 C252.55429688 150.56914062 253.10859375 151.20078125 253.6796875 151.8515625 C274.69169942 174.54453537 303.85203096 186.82889744 333 194.9375 C333 195.2675 333 195.5975 333 195.9375 C268.155 196.4325 268.155 196.4325 202 196.9375 C195.16354574 225.75944793 195.16354574 225.75944793 188.45703125 254.609375 C185.96452259 265.45409399 183.42300933 276.28747209 180.89111328 287.12304688 C179.42607355 293.39421969 177.963132 299.66588187 176.5 305.9375 C175.91667696 308.4375024 175.33334362 310.9375024 174.75 313.4375 C174.46125 314.675 174.1725 315.9125 173.875 317.1875 C164.25 358.4375 164.25 358.4375 163.37548828 362.18505859 C162.79032166 364.69314864 162.20536178 367.20128692 161.62060547 369.70947266 C160.19198529 375.83610118 158.76016628 381.96193862 157.3203125 388.0859375 C153.92227975 402.56049575 150.61980991 417.05293942 147.375 431.5625 C144.94572153 442.42460967 142.50220806 453.27301033 139.73730469 464.05566406 C137.24459433 473.79989546 135.05482934 483.61552829 132.80908203 493.41894531 C131.40803767 499.5118395 129.98506901 505.59960166 128.5625 511.6875 C128.27439453 512.92081055 127.98628906 514.15412109 127.68945312 515.42480469 C127.09886373 517.9528154 126.50820541 520.48081002 125.91748047 523.00878906 C124.95524578 527.12791514 123.99511463 531.24753044 123.03515625 535.3671875 C122.55396129 537.43168513 122.07274389 539.49617754 121.59152222 541.56066895 C121.13447408 543.52184705 120.67770769 545.48309081 120.22094727 547.44433594 C119.94436279 548.6305957 119.66777832 549.81685547 119.3828125 551.0390625 C119.13934082 552.08400879 118.89586914 553.12895508 118.64501953 554.20556641 C118.11405322 556.45443582 117.56782465 558.69770996 117 560.9375 C116.34 560.9375 115.68 560.9375 115 560.9375 C109.81191422 540.94912215 104.64660856 520.9549164 99.48962402 500.95849609 C98.30576833 496.36811616 97.12175693 491.77777644 95.9375 487.1875 C95.68771896 486.21931335 95.68771896 486.21931335 95.43289185 485.23156738 C93.12805232 476.29861856 90.81685306 467.36734001 88.5 458.4375 C84.99300661 444.92050555 81.5035646 431.39899891 78.01611328 417.87695312 C76.34480413 411.39694741 74.67232399 404.91724387 73 398.4375 C71.15771645 391.29921482 69.31543808 384.16092853 67.47433472 377.02233887 C64.15672225 364.15886534 60.8361909 351.2961709 57.5 338.4375 C53.99300661 324.92050555 50.5035646 311.39899891 47.01611328 297.87695312 C45.34480413 291.39694741 43.67232399 284.91724387 42 278.4375 C40.15774666 271.29933188 38.31549592 264.16116333 36.47442627 257.02268982 C35.6288879 253.74426646 34.78321251 250.46587845 33.9375 247.1875 C33.60927246 245.91511475 33.28104492 244.64272949 32.94287109 243.33178711 C30.39008218 233.43988812 27.82779589 223.55046841 25.25756836 213.66308594 C24.98952393 212.63086914 24.72147949 211.59865234 24.4453125 210.53515625 C24.21344238 209.64320557 23.98157227 208.75125488 23.74267578 207.83227539 C22.81203474 204.20485564 21.90827136 200.57058546 21 196.9375 C-38.4 196.6075 -97.8 196.2775 -159 195.9375 C-155.79750791 193.80250527 -153.10906774 192.94525984 -149.4375 191.8125 C-129.07436096 185.21187941 -110.01521692 175.25670302 -94 160.9375 C-92.98319286 160.05324748 -91.96626045 159.16913898 -90.94921875 158.28515625 C-58.83642324 130.02289968 -51.46260058 82.41304639 -43.4765625 42.40625 C-43.14695274 40.76189468 -43.14695274 40.76189468 -42.8106842 39.08432007 C-41.70729574 33.57319263 -40.61769043 28.05995343 -39.55151367 22.54150391 C-39.14538217 20.488535 -38.73890311 18.43563481 -38.33203125 16.3828125 C-38.06823166 14.97980896 -38.06823166 14.97980896 -37.79910278 13.54846191 C-36.3872296 6.51479844 -34.7173548 0.14535077 -29 -4.5 C-18.59321475 -9.92020065 -9.25126202 -5.76552294 0 0 Z " fill="#0F3054" transform="translate(915,20.0625)"/>
</svg>
